<?xml version="1.0" encoding="UTF-8" standalone="no"?>
<svg
   xmlns:dc="http://purl.org/dc/elements/1.1/"
   xmlns:cc="http://creativecommons.org/ns#"
   xmlns:rdf="http://www.w3.org/1999/02/22-rdf-syntax-ns#"
   xmlns:svg="http://www.w3.org/2000/svg"
   xmlns="http://www.w3.org/2000/svg"
   xmlns:sodipodi="http://sodipodi.sourceforge.net/DTD/sodipodi-0.dtd"
   xmlns:inkscape="http://www.inkscape.org/namespaces/inkscape"
   width="1172.5093"
   height="145.20003"
   viewBox="0 0 938.00742 116.16002"
   version="1.1"
   id="svg2"
   inkscape:version="0.48.4 r9939"
   sodipodi:docname="SVGlogo.svg"
   inkscape:export-filename="C:\Users\Lingke\Desktop\n-rei\images\logo\logo-low.png"
   inkscape:export-xdpi="18.595037"
   inkscape:export-ydpi="18.595037">
  <metadata
     id="metadata16">
    <rdf:RDF>
      <cc:Work
         rdf:about="">
        <dc:format>image/svg+xml</dc:format>
        <dc:type
           rdf:resource="http://purl.org/dc/dcmitype/StillImage" />
        <dc:title></dc:title>
      </cc:Work>
    </rdf:RDF>
  </metadata>
  <defs
     id="defs14" />
  <sodipodi:namedview
     pagecolor="#ffffff"
     bordercolor="#666666"
     borderopacity="1"
     objecttolerance="10"
     gridtolerance="10"
     guidetolerance="10"
     inkscape:pageopacity="0"
     inkscape:pageshadow="2"
     inkscape:window-width="1920"
     inkscape:window-height="1018"
     id="namedview12"
     showgrid="false"
     inkscape:zoom="0.47666667"
     inkscape:cx="-135.95053"
     inkscape:cy="41.264477"
     inkscape:window-x="-8"
     inkscape:window-y="-8"
     inkscape:window-maximized="1"
     inkscape:current-layer="svg2"
     fit-margin-top="0"
     fit-margin-left="0"
     fit-margin-right="0"
     fit-margin-bottom="0" />
  <g
     id="surface2"
     transform="translate(-148.20098,-61.851562)">
    <path
       style="fill:#007db0;fill-opacity:1;fill-rule:evenodd;stroke:none"
       d="m 328.44922,136.80078 c -2.13281,4.83203 -5.09766,9.31641 -8.89844,13.44922 -3.83594,4.13281 -8.35156,7.85156 -13.55078,11.14844 -5.89844,3.73437 -12.46484,6.88672 -19.69922,9.45312 -6.90234,2.4336 -14.19922,4.25 -21.90234,5.44922 -7.73047,1.23438 -15.69922,1.80078 -23.89844,1.69922 -8.16797,-0.10156 -16.39844,-0.93359 -24.69922,-2.5 -6.23437,-1.19922 -12.13281,-2.75 -17.69922,-4.64844 -9.70312,-3.36719 -18.15234,-7.5664 -25.35156,-12.60156 -0.66797,-0.46484 -1.30078,-0.93359 -1.89844,-1.39844 -0.23437,-0.16797 -0.46875,-0.33594 -0.70312,-0.5 4.60156,2.73047 9.88672,5 15.85156,6.79688 6,1.76953 12.56641,2.98437 19.69922,3.65234 7.13281,0.63281 14.71875,0.64844 22.75,0.0508 8.93359,-0.73437 17.5664,-2.16797 25.90234,-4.30078 8.36328,-2.13281 16.21485,-4.86719 23.54688,-8.19922 7.36718,-3.30078 13.98437,-7.03515 19.85156,-11.20312 5.89844,-4.19922 10.85156,-8.71485 14.85156,-13.54688 4,-4.83593 6.83203,-9.83593 8.5,-15 0.39844,-1.33593 0.73047,-2.66797 1,-4 0.59766,-3.43359 0.63281,-6.70312 0.0977,-9.80078 -0.53125,-3.132811 -1.59766,-6.101561 -3.19922,-8.902342 4.06641,4.433593 7.18359,9.117192 9.35156,14.050782 2.16406,4.93359 3.28125,10 3.34766,15.19922 0.10156,5.20312 -0.98438,10.41797 -3.25,15.65234 m -125.5,-59.199218 c 7.40234,-2.933593 15.23437,-5.285156 23.5,-7.050781 L 236,61.851562 c -9.73438,0.09766 -19.08203,1.132813 -28.05078,3.097657 -8.96485,1.96875 -17.19922,4.75 -24.69922,8.351562 -7.53516,3.597657 -14.03516,7.898438 -19.5,12.898438 -5.43359,5.035156 -9.53516,10.652343 -12.30078,16.851561 -2.63281,6.19922 -3.66406,12.36719 -3.09766,18.5 0.56641,6.09766 2.56641,11.98438 6,17.64844 -1.96875,-4.69922 -2.46875,-9.80078 -1.5,-15.30078 0.83203,-4.53125 2.59766,-8.94922 5.29688,-13.25 2.70312,-4.33203 6.18359,-8.46485 10.45312,-12.39844 4.26563,-3.933594 9.1836,-7.601562 14.75,-11 l 15.04688,-13.550781 4.55078,3.902343 m 44.94922,-10.050781 -6.25,-5.652343 c 7.46875,0.203124 14.96875,1.019531 22.5,2.453124 7.80078,1.5 15.05078,3.546876 21.75,6.148438 -5.5,-1.433594 -11.4336,-2.398438 -17.79688,-2.898438 C 261.73437,67.066406 255,67.050781 247.89844,67.550781"
       id="path5"
       inkscape:connector-curvature="0" />
    <path
       style="fill:#003a78;fill-opacity:1;fill-rule:evenodd;stroke:none"
       d="m 225.64844,125.69922 12.30078,0 0,12.30078 -12.30078,0 0,-12.30078 m 0,-17.5 12.30078,0 0,12.30078 -12.30078,0 0,-12.30078 m 14.75,-17.148439 c 2.53515,0.03125 4.85156,0.597657 6.95312,1.699219 2.06641,1.132812 3.78125,2.648438 5.14844,4.550781 1.36719,1.933594 2.25,4.117189 2.64844,6.550779 l -29.5,0 c 0.36718,-2.43359 1.23437,-4.617185 2.60156,-6.550779 1.39844,-1.902343 3.13281,-3.417969 5.19922,-4.550781 2.10156,-1.101562 4.41797,-1.667969 6.94922,-1.699219 M 255.5,120.5 l -12.35156,0 0,-12.30078 12.35156,0 0,12.30078 m 0,17.5 -12.35156,0 0,-12.30078 12.35156,0 0,12.30078 m -80.89844,16.64844 c 6.36328,3.13672 13.81641,5.38672 22.34766,6.75 8.5,1.33593 17.80078,1.61718 27.90234,0.85156 9.26563,-0.76563 18.19922,-2.35156 26.79688,-4.75 8.60156,-2.43359 16.5664,-5.5 23.90234,-9.19922 7.33203,-3.69922 13.76563,-7.88281 19.30078,-12.55078 5.53125,-4.66797 9.86328,-9.63281 13,-14.89844 l 0,-12 4.59766,0 c 0.19922,-1.10156 0.3164,-2.16797 0.35156,-3.20312 L 311.5,104.5 281.25,78.050781 273.44922,85.25 l -1.39844,1.351562 12.19922,11.046876 4.75,4.300782 -5.85156,0 L 255.94922,77.351562 240.64844,63.648438 212.94922,88.851562 212.85156,88.75 198.25,101.94922 l -5.89844,0 17.5,-15.750001 -0.40234,-0.347657 L 206.39844,83.25 200.25,78.050781 170.85156,104.5 l -2.95312,2.64844 0,1.70312 6.70312,0 0,45.79688"
       id="path7"
       inkscape:connector-curvature="0" />
  </g>
  <g
     id="surface4"
     transform="matrix(1.5545058,0,0,1.5545058,193.93392,-278.00012)">
    <text
       style="font-size:45px;fill:#003d79;font-family:Futura Md BT"
       font-size="45"
       transform="translate(5.826416,232.6)"
       id="text10">Nationwide Real Estate</text>
  </g>
</svg>
